<svg xmlns="http://www.w3.org/2000/svg" viewBox="0 0 760 520" width="760" height="520" role="img" aria-label="mirror-design mascot: a developer lounging back, holding up a mirror that reflects a UI (Ctrl+C) and pasting the same UI onto a laptop on their lap (Ctrl+V)">
  <style>
    :root{color-scheme:light dark;}
    .ink{fill:#1e293b;} .stroke-ink{stroke:#1e293b;}
    .skin{fill:#cbd5e1;} .skinD{fill:#b3bccb;}
    .hair{fill:#334155;}
    .hoodie{fill:#94a3b8;} .hoodieD{fill:#6b7686;}
    .leg{fill:#64748b;} .legD{fill:#4b5563;}
    .cushion{fill:#d1d8e2;} .cushionD{fill:#b6bfcc;}
    .screen{fill:#64748b;} .screenD{fill:#475569;}
    .aline{stroke:#ffffff;opacity:.95;}
    .frame{fill:#475569;} .frameD{fill:#334155;}
    .cap{fill:#ffffff;stroke:#cbd5e1;} .capTx{fill:#1e293b;} .muted{fill:#64748b;}
    .shadow{fill:#0f172a;opacity:.07;}
    .chipBg{fill:#1e293b;} .chipTx{fill:#ffffff;}
    .echo{fill:#94a3b8;opacity:.34;}
    .shine{stroke:#ffffff;opacity:.5;}
    @media (prefers-color-scheme:dark){
      .ink{fill:#e2e8f0;} .stroke-ink{stroke:#e2e8f0;}
      .skin{fill:#8f9bad;} .skinD{fill:#7d899b;}
      .hair{fill:#1e2530;}
      .hoodie{fill:#5b6472;} .hoodieD{fill:#454d5b;}
      .leg{fill:#3f4757;} .legD{fill:#2f3541;}
      .cushion{fill:#3a4150;} .cushionD{fill:#2c323e;}
      .screen{fill:#94a3b8;} .screenD{fill:#64748b;}
      .frame{fill:#94a3b8;} .frameD{fill:#64748b;}
      .cap{fill:#0f172a;stroke:#334155;} .capTx{fill:#e2e8f0;} .muted{fill:#94a3b8;}
      .shadow{fill:#000;opacity:.24;}
      .chipBg{fill:#e2e8f0;} .chipTx{fill:#0f172a;}
      .echo{fill:#64748b;opacity:.32;}
      .aline{stroke:#e5e9f0;opacity:.92;}
      .shine{stroke:#e5e9f0;opacity:.35;}
    }
  </style>

  <!-- floor shadow -->
  <ellipse class="shadow" cx="400" cy="452" rx="258" ry="24"/>

  <!-- floor cushion + back bolster -->
  <rect class="cushionD" x="150" y="384" width="470" height="80" rx="40"/>
  <rect class="cushion"  x="150" y="374" width="470" height="72" rx="36"/>
  <ellipse class="cushionD" cx="212" cy="330" rx="86" ry="66"/>
  <ellipse class="cushion"  cx="206" cy="326" rx="80" ry="60"/>

  <!-- far (raised) arm holding the mirror -->
  <rect class="hoodieD" x="300" y="196" width="34" height="150" rx="17" transform="rotate(20 317 271)"/>
  <circle class="skinD" cx="330" cy="196" r="18"/>

  <!-- legs: reclined, knees up -->
  <rect class="leg"  x="392" y="330" width="150" height="52" rx="26" transform="rotate(-24 392 356)"/>
  <rect class="legD" x="500" y="286" width="50" height="120" rx="25" transform="rotate(10 525 346)"/>
  <path class="ink" d="M508 398 q-6 20 16 22 q30 2 34 -14 q2 -12 -12 -16 Z"/>

  <!-- torso, reclined -->
  <rect class="hoodie" x="238" y="300" width="210" height="86" rx="43" transform="rotate(16 343 343)"/>
  <ellipse class="hoodieD" cx="268" cy="300" rx="40" ry="30" transform="rotate(16 268 300)"/>

  <!-- head, resting back -->
  <circle class="skin" cx="238" cy="256" r="58"/>
  <circle class="skinD" cx="214" cy="262" r="10"/>
  <path class="hair" d="M184 258 q-14 -70 58 -76 q56 -4 62 40 q2 14 -6 22 q-6 -34 -46 -36 q-16 12 -20 2 q-8 20 -30 22 q-12 2 -18 26 q-4 -14 0 -22 Z"/>
  <g class="stroke-ink" fill="none" stroke-width="4" stroke-linecap="round">
    <circle cx="248" cy="248" r="14"/>
    <circle cx="290" cy="244" r="14"/>
    <path d="M262 247 h14"/>
  </g>
  <path class="ink" d="M242 250 q6 5 12 0"/>
  <path class="ink" d="M284 246 q6 5 12 0"/>
  <path class="stroke-ink" d="M258 278 q12 8 22 -2" fill="none" stroke-width="4" stroke-linecap="round"/>

  <!-- Zzz -->
  <g class="muted" font-family="ui-monospace, Menlo, monospace" font-weight="700">
    <text x="322" y="150" font-size="17">z</text>
    <text x="342" y="128" font-size="23">z</text>
    <text x="368" y="102" font-size="30">Z</text>
  </g>

  <!-- near arm on the laptop (Ctrl+V) -->
  <rect class="hoodie" x="330" y="330" width="150" height="40" rx="20" transform="rotate(-8 405 350)"/>
  <circle class="skin" cx="470" cy="336" r="17"/>

  <!-- LAPTOP on the lap (paste target) -->
  <g transform="rotate(-24 470 300)">
    <rect class="frameD" x="410" y="286" width="120" height="82" rx="8"/>
    <rect class="screenD" x="410" y="360" width="120" height="12" rx="4"/>
    <rect class="screen" x="418" y="294" width="104" height="66" rx="5"/>
    <g class="aline" stroke-width="4.5" stroke-linecap="round">
      <path d="M434 312 h60"/>
      <path d="M434 328 h42"/>
      <path d="M434 344 h54"/>
    </g>
  </g>

  <!-- HAND MIRROR (rectangular — the source) -->
  <rect class="echo" x="268" y="70" width="116" height="150" rx="20" transform="rotate(-6 326 145)"/>
  <rect class="frameD" x="322" y="150" width="20" height="60" rx="10" transform="rotate(14 332 180)"/>
  <rect class="frame" x="250" y="58" width="112" height="140" rx="20"/>
  <rect class="screen" x="264" y="72" width="84" height="112" rx="12"/>
  <g class="aline" stroke-width="5" stroke-linecap="round">
    <path d="M280 100 h54"/>
    <path d="M280 122 h38"/>
    <path d="M280 144 h48"/>
    <path d="M280 166 h30"/>
  </g>
  <path class="shine" d="M276 176 L332 86" fill="none" stroke-width="7" stroke-linecap="round"/>

  <!-- keycaps -->
  <g transform="translate(372 60)" font-family="ui-monospace, SFMono-Regular, Menlo, monospace" font-weight="700">
    <rect class="cap" x="0" y="0" width="44" height="26" rx="6" stroke-width="2"/>
    <text x="22" y="18" text-anchor="middle" font-size="13" class="capTx">Ctrl</text>
    <text x="52" y="19" font-size="15" class="muted">+</text>
    <rect class="cap" x="66" y="0" width="28" height="26" rx="6" stroke-width="2"/>
    <text x="80" y="18" text-anchor="middle" font-size="14" class="capTx">C</text>
  </g>
  <g transform="translate(556 372)" font-family="ui-monospace, SFMono-Regular, Menlo, monospace" font-weight="700">
    <rect class="cap" x="0" y="0" width="44" height="26" rx="6" stroke-width="2"/>
    <text x="22" y="18" text-anchor="middle" font-size="13" class="capTx">Ctrl</text>
    <text x="52" y="19" font-size="15" class="muted">+</text>
    <rect class="cap" x="66" y="0" width="28" height="26" rx="6" stroke-width="2"/>
    <text x="80" y="18" text-anchor="middle" font-size="14" class="capTx">V</text>
  </g>

  <!-- creativity chip -->
  <g transform="translate(150 474)">
    <rect class="chipBg" x="0" y="0" width="176" height="30" rx="15"/>
    <text x="88" y="20" text-anchor="middle" font-family="ui-monospace, SFMono-Regular, Menlo, monospace" font-size="14" font-weight="700" class="chipTx" letter-spacing="1">CREATIVITY&#160;0</text>
  </g>
</svg>
